<svg xmlns="http://www.w3.org/2000/svg" xmlns:xlink="http://www.w3.org/1999/xlink" viewBox="0 0 64 64"><defs><style>.cls-1{fill:url(#linear-gradient);}.cls-2{fill:#dd8b37;}.cls-3{fill:url(#linear-gradient-2);}.cls-4{fill:url(#linear-gradient-3);}.cls-5{fill:#cf4055;}.cls-6{fill:#231f20;}</style><linearGradient id="linear-gradient" x1="32" y1="58" x2="32" y2="6" gradientUnits="userSpaceOnUse"><stop offset="0" stop-color="#e9a254"/><stop offset="1" stop-color="#f4bb79"/></linearGradient><linearGradient id="linear-gradient-2" x1="32" y1="53" x2="32" y2="12.28" gradientUnits="userSpaceOnUse"><stop offset="0" stop-color="#fbcc88"/><stop offset="1" stop-color="#ffe5c3"/></linearGradient><linearGradient id="linear-gradient-3" x1="32" y1="46" x2="32" y2="32" gradientUnits="userSpaceOnUse"><stop offset="0" stop-color="#da5466"/><stop offset="1" stop-color="#f4929c"/></linearGradient></defs><title>Warning</title><g id="Warning"><path class="cls-1" d="M32,6h0A3.58,3.58,0,0,0,29,7.7L1.58,52.06a3.86,3.86,0,0,0-.58,2H1A3.89,3.89,0,0,0,4.9,58H59.1A3.89,3.89,0,0,0,63,54.1h0a3.86,3.86,0,0,0-.58-2L35.05,7.7A3.58,3.58,0,0,0,32,6Z"/><path class="cls-2" d="M63,54.1A3.89,3.89,0,0,1,59.1,58H4.9A3.89,3.89,0,0,1,1,54.1a3.36,3.36,0,0,1,.14-1,3.78,3.78,0,0,0,1,1.76A3.9,3.9,0,0,0,4.9,56H59.1a3.88,3.88,0,0,0,3.76-2.9A3.36,3.36,0,0,1,63,54.1Z"/><polygon class="cls-3" points="6.88 53 32 12.28 57.13 53 6.88 53"/><circle class="cls-4" cx="32" cy="39" r="7"/><path class="cls-5" d="M39,39a7,7,0,0,1-14,0,5.47,5.47,0,0,1,.08-1,7,7,0,0,0,13.84,0A5.47,5.47,0,0,1,39,39Z"/><path class="cls-6" d="M63.27,51.53,35.9,7.18a4.58,4.58,0,0,0-7.8,0L.73,51.54A4.84,4.84,0,0,0,0,54.1,4.91,4.91,0,0,0,4.9,59H59.1a4.9,4.9,0,0,0,4.17-7.47ZM59.1,57H4.9A2.9,2.9,0,0,1,2,54.1a2.94,2.94,0,0,1,.43-1.52L29.8,8.23a2.58,2.58,0,0,1,4.4,0L61.57,52.58A2.94,2.94,0,0,1,62,54.1,2.9,2.9,0,0,1,59.1,57Z"/><path class="cls-6" d="M32.85,11.76a1,1,0,0,0-1.7,0L6,52.47a1,1,0,0,0,0,1,1,1,0,0,0,.88.51H57.12a1,1,0,0,0,.88-.51,1,1,0,0,0,0-1ZM8.67,52,32,14.19,55.33,52Z"/><path class="cls-6" d="M31,30v1.06a8.13,8.13,0,0,0-3.9,1.62h0l-1.39-1.39a1,1,0,0,0-1.42,1.42l1.39,1.39h0A8.13,8.13,0,0,0,24.06,38H23a1,1,0,0,0,0,2h1.06a8.13,8.13,0,0,0,1.62,3.9h0l-1.39,1.39a1,1,0,0,0,0,1.42,1,1,0,0,0,1.42,0l1.39-1.39h0A8.13,8.13,0,0,0,31,46.94V48a1,1,0,0,0,2,0V46.94a8.13,8.13,0,0,0,3.9-1.62h0l1.39,1.39a1,1,0,0,0,1.42,0,1,1,0,0,0,0-1.42L38.32,43.9h0A8.13,8.13,0,0,0,39.94,40H41a1,1,0,0,0,0-2H39.94a8.13,8.13,0,0,0-1.62-3.9h0l1.39-1.39a1,1,0,0,0-1.42-1.42L36.9,32.68h0A8.13,8.13,0,0,0,33,31.06V30a1,1,0,0,0-2,0Zm5.24,4.76A5.86,5.86,0,0,1,37.91,38h0a1,1,0,0,0,0,2h0A6,6,0,0,1,33,44.91h0a1,1,0,0,0-2,0h0A6,6,0,0,1,26.09,40h0a1,1,0,0,0,0-2h0A6,6,0,0,1,31,33.09h0a1,1,0,0,0,2,0h0A5.86,5.86,0,0,1,36.24,34.76Z"/><circle class="cls-6" cx="29.5" cy="37.5" r="1.5"/><circle class="cls-6" cx="35" cy="38" r="1"/><circle class="cls-6" cx="32" cy="41" r="1"/></g></svg>